<svg width="32" height="32" viewBox="0 0 32 32" fill="none" xmlns="http://www.w3.org/2000/svg">
<g id="caret-up-fill">
<path id="Vector" d="M14.494 9.72005L4.90202 20.682C3.77002 21.976 4.69002 24 6.40802 24H25.592C25.9765 24.0004 26.3529 23.8899 26.6762 23.6818C26.9996 23.4737 27.256 23.1768 27.4149 22.8267C27.5738 22.4765 27.6285 22.088 27.5723 21.7077C27.5161 21.3273 27.3514 20.9712 27.098 20.682L17.506 9.72204C17.3183 9.50723 17.0868 9.33505 16.827 9.21709C16.5673 9.09912 16.2853 9.03809 16 9.03809C15.7147 9.03809 15.4328 9.09912 15.173 9.21709C14.9133 9.33505 14.6817 9.50723 14.494 9.72204V9.72005Z" fill="#27AE60"/>
</g>
</svg>
