<svg width="32" height="33" viewBox="0 0 32 33" fill="none" xmlns="http://www.w3.org/2000/svg">
<g id="caret-up-fill">
<g id="Vector">
<path d="M17.506 22.9858L27.098 12.0238C28.23 10.7298 27.31 8.70583 25.592 8.70583H6.40798C6.02349 8.7055 5.64705 8.816 5.32375 9.02411C5.00045 9.23221 4.74399 9.5291 4.58508 9.87921C4.42616 10.2293 4.37154 10.6178 4.42774 10.9982C4.48395 11.3785 4.6486 11.7346 4.90197 12.0238L14.494 22.9838C14.6817 23.1986 14.9132 23.3708 15.173 23.4888C15.4327 23.6068 15.7147 23.6678 16 23.6678C16.2853 23.6678 16.5672 23.6068 16.827 23.4888C17.0867 23.3708 17.3183 23.1986 17.506 22.9838V22.9858Z" fill="#EB5757"/>
<path d="M17.506 22.9858L27.098 12.0238C28.23 10.7298 27.31 8.70583 25.592 8.70583H6.40798C6.02349 8.7055 5.64705 8.816 5.32375 9.02411C5.00045 9.23221 4.74399 9.5291 4.58508 9.87921C4.42616 10.2293 4.37154 10.6178 4.42774 10.9982C4.48395 11.3785 4.6486 11.7346 4.90197 12.0238L14.494 22.9838C14.6817 23.1986 14.9132 23.3708 15.173 23.4888C15.4327 23.6068 15.7147 23.6678 16 23.6678C16.2853 23.6678 16.5672 23.6068 16.827 23.4888C17.0867 23.3708 17.3183 23.1986 17.506 22.9838V22.9858Z" fill="#F45B69" fill-opacity="0.8"/>
</g>
</g>
</svg>
