<svg width="24" height="24" viewBox="0 0 24 24" fill="none" xmlns="http://www.w3.org/2000/svg">
<g id="employees">
<ellipse id="Ellipse 295" cx="12" cy="17.5312" rx="6" ry="2.65625" stroke="black" stroke-width="1.5" stroke-linejoin="round"/>
<ellipse id="Ellipse 296" cx="12" cy="8.5" rx="3" ry="3.1875" stroke="black" stroke-width="1.5" stroke-linejoin="round"/>
<path id="Subtract" fill-rule="evenodd" clip-rule="evenodd" d="M6.35841 14.1414C5.14845 14.2032 4.03793 14.4388 3.17111 14.8072C2.66351 15.0229 2.2045 15.299 1.86132 15.6439C1.51511 15.9917 1.25 16.4508 1.25 17.0001C1.25 17.5493 1.51511 18.0084 1.86132 18.3563C2.2045 18.7011 2.66351 18.9772 3.17111 19.1929C3.66274 19.4019 4.23277 19.5681 4.85488 19.6841C4.39976 19.1456 4.11005 18.5487 4.02567 17.9171C3.93244 17.8836 3.84308 17.8486 3.75782 17.8124C3.3606 17.6436 3.08738 17.4618 2.92453 17.2981C2.76471 17.1376 2.75 17.0376 2.75 17.0001C2.75 16.9625 2.76471 16.8626 2.92453 16.702C3.08738 16.5383 3.3606 16.3565 3.75782 16.1877C3.96508 16.0996 4.19663 16.0191 4.44895 15.9482C4.85257 15.2605 5.51175 14.6447 6.35841 14.1414Z" fill="black"/>
<path id="Subtract_2" fill-rule="evenodd" clip-rule="evenodd" d="M19.9743 17.9171C19.89 18.5487 19.6003 19.1456 19.1451 19.6841C19.7672 19.5681 20.3373 19.4019 20.8289 19.1929C21.3365 18.9772 21.7955 18.7011 22.1387 18.3563C22.4849 18.0084 22.75 17.5493 22.75 17.0001C22.75 16.4508 22.4849 15.9917 22.1387 15.6439C21.7955 15.299 21.3365 15.0229 20.8289 14.8072C19.9621 14.4388 18.8516 14.2032 17.6416 14.1414C18.4883 14.6447 19.1474 15.2605 19.5511 15.9482C19.8034 16.0191 20.0349 16.0996 20.2422 16.1877C20.6394 16.3565 20.9126 16.5383 21.0755 16.702C21.2353 16.8626 21.25 16.9625 21.25 17.0001C21.25 17.0376 21.2353 17.1376 21.0755 17.2981C20.9126 17.4618 20.6394 17.6436 20.2422 17.8124C20.1569 17.8486 20.0676 17.8836 19.9743 17.9171Z" fill="black"/>
<path id="Subtract_3" fill-rule="evenodd" clip-rule="evenodd" d="M16.499 10.8205C16.286 11.2858 16.011 11.7131 15.6854 12.0903C16.0722 12.3108 16.5184 12.4375 17 12.4375C18.561 12.4375 19.75 11.1068 19.75 9.5625C19.75 8.01817 18.561 6.6875 17 6.6875C16.9007 6.6875 16.8029 6.69288 16.7068 6.70337C16.865 7.17117 16.9632 7.66939 16.9915 8.18753C16.9943 8.18751 16.9972 8.1875 17 8.1875C17.6482 8.1875 18.25 8.75962 18.25 9.5625C18.25 10.3654 17.6482 10.9375 17 10.9375C16.8261 10.9375 16.6555 10.8963 16.499 10.8205Z" fill="black"/>
<path id="Subtract_4" fill-rule="evenodd" clip-rule="evenodd" d="M7.29316 6.70337C7.19709 6.69288 7.0993 6.6875 7 6.6875C5.43903 6.6875 4.25 8.01817 4.25 9.5625C4.25 11.1068 5.43903 12.4375 7 12.4375C7.48161 12.4375 7.92782 12.3108 8.31463 12.0903C7.98898 11.7131 7.71394 11.2858 7.50096 10.8205C7.34446 10.8963 7.1739 10.9375 7 10.9375C6.35183 10.9375 5.75 10.3654 5.75 9.5625C5.75 8.75962 6.35183 8.1875 7 8.1875C7.00284 8.1875 7.00567 8.18751 7.00851 8.18753C7.03679 7.66939 7.13497 7.17117 7.29316 6.70337Z" fill="black"/>
</g>
</svg>
