<svg width="560" height="90" viewBox="0 0 560 90" fill="none" xmlns="http://www.w3.org/2000/svg">
<path d="M428.899 71.7436C423.638 71.7436 418.954 70.6241 414.848 68.3852C410.742 66.0823 407.502 62.9478 405.128 58.9816C402.754 55.0155 401.567 50.5056 401.567 45.452C401.567 40.3344 402.754 35.8246 405.128 31.9224C407.502 27.9563 410.742 24.8538 414.848 22.6148C418.954 20.3759 423.638 19.2564 428.899 19.2564C434.224 19.2564 438.94 20.3759 443.046 22.6148C447.216 24.8538 450.456 27.9243 452.766 31.8265C455.14 35.7286 456.327 40.2705 456.327 45.452C456.327 50.5056 455.14 55.0155 452.766 58.9816C450.456 62.9478 447.216 66.0823 443.046 68.3852C438.94 70.6241 434.224 71.7436 428.899 71.7436ZM428.899 61.4764C431.85 61.4764 434.481 60.8368 436.79 59.5574C439.1 58.278 440.896 56.4228 442.18 53.992C443.527 51.5611 444.201 48.7145 444.201 45.452C444.201 42.1256 443.527 39.2789 442.18 36.9121C440.896 34.4812 439.1 32.6261 436.79 31.3467C434.481 30.0673 431.882 29.4276 428.995 29.4276C426.044 29.4276 423.413 30.0673 421.104 31.3467C418.858 32.6261 417.062 34.4812 415.714 36.9121C414.367 39.2789 413.693 42.1256 413.693 45.452C413.693 48.7145 414.367 51.5611 415.714 53.992C417.062 56.4228 418.858 58.278 421.104 59.5574C423.413 60.8368 426.012 61.4764 428.899 61.4764Z" fill="#5F6AFF"/>
<path d="M374.188 71.7436V1H387.878V71.7436H374.188Z" fill="#5F6AFF"/>
<path d="M330.44 71.7436V18.4734C330.44 13.1841 332.06 8.96534 335.301 5.81699C338.608 2.60566 343.303 1 349.387 1C351.57 1 353.62 1.22038 355.538 1.66115C357.522 2.10192 359.175 2.79456 360.498 3.73907L357.125 12.6174C356.199 11.9248 355.141 11.4211 353.951 11.1062C352.76 10.7284 351.537 10.5395 350.28 10.5395C347.701 10.5395 345.75 11.2322 344.427 12.6174C343.105 13.9397 342.443 15.9547 342.443 18.6623V24.3293L342.84 29.6186V71.7436H330.44ZM321.71 31.1298V21.6847H357.026V31.1298H321.71Z" fill="#5F6AFF"/>
<path d="M271.442 90C268.966 90 266.49 89.5964 264.014 88.7891C261.538 87.9819 259.475 86.8641 257.824 85.4359L262.586 76.8666C263.792 77.9222 265.157 78.7605 266.681 79.3815C268.204 80.0024 269.76 80.3129 271.347 80.3129C273.505 80.3129 275.251 79.7851 276.584 78.7295C277.917 77.6738 279.155 75.9041 280.298 73.4202L283.25 66.9L284.202 65.5029L303.438 21.5385H314.865L291.059 75.2831C289.472 79.0089 287.694 81.9585 285.726 84.1319C283.821 86.3052 281.663 87.8266 279.25 88.696C276.902 89.5653 274.299 90 271.442 90ZM281.917 73.0476L258.967 21.5385H271.347L290.011 64.4783L281.917 73.0476Z" fill="#5F6AFF"/>
<path d="M227.089 71.9856C222.904 71.9856 219.073 71.0217 215.596 69.0937C212.184 67.1658 209.447 64.2739 207.387 60.418C205.391 56.4978 204.393 51.5494 204.393 45.5728C204.393 39.5319 205.359 34.5835 207.291 30.7277C209.286 26.8718 211.991 24.012 215.403 22.1483C218.815 20.2204 222.711 19.2564 227.089 19.2564C232.175 19.2564 236.65 20.3489 240.513 22.5339C244.441 24.7189 247.531 27.7715 249.784 31.6916C252.102 35.6118 253.261 40.2388 253.261 45.5728C253.261 50.9068 252.102 55.566 249.784 59.5504C247.531 63.4705 244.441 66.5231 240.513 68.7081C236.65 70.8931 232.175 71.9856 227.089 71.9856ZM198.502 90L198.502 19.8348H209.995V31.9808L209.608 45.6692L210.574 59.3576L210.574 90H198.502ZM225.737 61.6711C228.634 61.6711 231.209 61.0285 233.463 59.7432C235.781 58.4579 237.616 56.5942 238.968 54.1522C240.32 51.7101 240.996 48.8503 240.996 45.5728C240.996 42.2311 240.32 39.3713 238.968 36.9935C237.616 34.5514 235.781 32.6877 233.463 31.4024C231.209 30.1171 228.634 29.4745 225.737 29.4745C222.839 29.4745 220.232 30.1171 217.914 31.4024C215.596 32.6877 213.761 34.5514 212.409 36.9935C211.057 39.3713 210.381 42.2311 210.381 45.5728C210.381 48.8503 211.057 51.7101 212.409 54.1522C213.761 56.5942 215.596 58.4579 217.914 59.7432C220.232 61.0285 222.839 61.6711 225.737 61.6711Z" fill="#5F6AFF"/>
<path d="M157.449 71.9856C153.438 71.9856 149.767 71.0217 146.435 69.0937C143.165 67.1658 140.542 64.2739 138.568 60.418C136.655 56.4978 135.699 51.5494 135.699 45.5728C135.699 39.5319 136.624 34.5835 138.475 30.7277C140.388 26.8718 142.98 24.012 146.25 22.1483C149.52 20.2204 153.253 19.2564 157.449 19.2564C162.323 19.2564 166.611 20.3489 170.314 22.5339C174.077 24.7189 177.039 27.7715 179.199 31.6916C181.42 35.6118 182.531 40.2388 182.531 45.5728C182.531 50.9068 181.42 55.566 179.199 59.5504C177.039 63.4705 174.077 66.5231 170.314 68.7081C166.611 70.8931 162.323 71.9856 157.449 71.9856ZM130.053 90L130.053 19.8348H141.067V31.9808L140.697 45.6692L141.622 59.3576V90H130.053ZM156.153 61.6711C158.93 61.6711 161.398 61.0285 163.557 59.7432C165.779 58.4579 167.537 56.5942 168.833 54.1522C170.128 51.7101 170.776 48.8503 170.776 45.5728C170.776 42.2311 170.128 39.3713 168.833 36.9935C167.537 34.5514 165.779 32.6877 163.557 31.4024C161.398 30.1171 158.93 29.4745 156.153 29.4745C153.376 29.4745 150.877 30.1171 148.656 31.4024C146.435 32.6877 144.676 34.5514 143.381 36.9935C142.085 39.3713 141.437 42.2311 141.437 45.5728C141.437 48.8503 142.085 51.7101 143.381 54.1522C144.676 56.5942 146.435 58.4579 148.656 59.7432C150.877 61.0285 153.376 61.6711 156.153 61.6711Z" fill="#5F6AFF"/>
<path d="M98.416 71.0719V60.7088L97.7574 58.5019V40.3664C97.7574 36.8481 96.7224 34.1294 94.6525 32.2103C92.5826 30.2272 89.4463 29.2357 85.2437 29.2357C82.4211 29.2357 79.6298 29.6835 76.8699 30.5791C74.1727 31.4746 71.8832 32.722 70.0015 34.3213L65.3911 25.5894C68.0883 23.4784 71.2873 21.9112 74.9881 20.8876C78.7516 19.8002 82.6406 19.2564 86.655 19.2564C93.9312 19.2564 99.5451 21.0476 103.497 24.6299C107.511 28.1482 109.518 33.6176 109.518 41.0381V71.0719H98.416ZM82.6092 71.7436C78.8457 71.7436 75.5526 71.1039 72.73 69.8245C69.9074 68.4811 67.712 66.658 66.1439 64.3551C64.6384 61.9882 63.8857 59.3335 63.8857 56.3909C63.8857 53.5122 64.5444 50.9214 65.8616 48.6185C67.2415 46.3156 69.4683 44.4925 72.5418 43.1491C75.6154 41.8058 79.6925 41.1341 84.7733 41.1341H99.3569V49.0983H85.62C81.6056 49.0983 78.9084 49.77 77.5285 51.1133C76.1485 52.3927 75.4586 53.992 75.4586 55.9111C75.4586 58.0861 76.3053 59.8132 77.9989 61.0926C79.6925 62.372 82.0447 63.0117 85.0555 63.0117C87.9409 63.0117 90.5126 62.34 92.7707 60.9967C95.0916 59.6533 96.7538 57.6702 97.7574 55.0475L99.7332 62.2441C98.6042 65.2507 96.5656 67.5856 93.6175 69.2488C90.7322 70.912 87.0627 71.7436 82.6092 71.7436Z" fill="#5F6AFF"/>
<path d="M27.6008 20.259C31.4874 20.259 34.9489 21.0536 37.9853 22.6426C41.0824 24.2316 43.5115 26.6787 45.2726 29.9839C47.0337 33.2255 47.9143 37.4206 47.9143 42.569V71.7436H36.5278V44.0945C36.5278 39.5816 35.4954 36.2129 33.4307 33.9883C31.4267 31.7636 28.6028 30.6513 24.9592 30.6513C22.2871 30.6513 19.9187 31.2233 17.854 32.3674C15.7892 33.5115 14.18 35.2277 13.0261 37.5159C11.933 39.7405 11.3865 42.569 11.3865 46.0013V71.7436H0V1H11.3865V34.5603L8.927 30.3653C10.6274 27.1236 13.0869 24.6448 16.3054 22.9286C19.5847 21.1489 23.3499 20.259 27.6008 20.259Z" fill="#5F6AFF"/>
<path d="M483.063 71.8373L483.126 71.9936H483.295H492.792H492.963L493.025 71.8342L508.784 31.3164L524.355 71.8333L524.417 71.9936H524.589H534.086H534.263L534.322 71.8266L559.236 1.08304L559.353 0.75H559H550.122H549.944L549.886 0.917507L529.256 59.9347L513.364 17.4466L513.303 17.2841H513.13H504.768H504.596L504.534 17.4448L488.15 60.2839L477.361 33.1588L477.299 33.0011H477.129H467.735H467.364L467.503 33.3448L483.063 71.8373Z" fill="#5F6AFF" stroke="#5F6AFF" stroke-width="0.5"/>
</svg>
