<svg width="154" height="26" viewBox="0 0 154 26" fill="none" xmlns="http://www.w3.org/2000/svg">
<g id="Group 3">
<path id="Vector" d="M133.912 20.079L129.833 9.8307H132.296L135.779 18.726H134.616L139.541 5.64617H141.732L146.549 18.726H145.413L151.673 0.197693H154L147.226 20.079H144.736L140.217 8.13575H140.975L136.402 20.079H133.912Z" fill="#FF9F1C"/>
<path id="Vector_2" d="M120.243 20.2414C118.8 20.2414 117.519 19.9257 116.401 19.2943C115.282 18.6628 114.398 17.7969 113.749 16.6964C113.099 15.5779 112.775 14.3151 112.775 12.9079C112.775 11.4827 113.099 10.2199 113.749 9.11945C114.398 8.01898 115.282 7.16206 116.401 6.54869C117.519 5.91727 118.8 5.60156 120.243 5.60156C121.669 5.60156 122.94 5.91727 124.059 6.54869C125.196 7.16206 126.079 8.01898 126.711 9.11945C127.36 10.2019 127.685 11.4647 127.685 12.9079C127.685 14.3331 127.36 15.596 126.711 16.6964C126.079 17.7969 125.196 18.6628 124.059 19.2943C122.94 19.9257 121.669 20.2414 120.243 20.2414ZM120.243 17.9683C121.163 17.9683 121.984 17.7608 122.706 17.3459C123.446 16.931 124.023 16.3446 124.438 15.5869C124.853 14.8112 125.06 13.9182 125.06 12.9079C125.06 11.8796 124.853 10.9957 124.438 10.256C124.023 9.4983 123.446 8.91198 122.706 8.49705C121.984 8.08212 121.163 7.87466 120.243 7.87466C119.323 7.87466 118.503 8.08212 117.781 8.49705C117.059 8.91198 116.482 9.4983 116.049 10.256C115.616 10.9957 115.4 11.8796 115.4 12.9079C115.4 13.9182 115.616 14.8112 116.049 15.5869C116.482 16.3446 117.059 16.931 117.781 17.3459C118.503 17.7608 119.323 17.9683 120.243 17.9683Z" fill="#5F6AFF"/>
<path id="Vector_3" d="M106.542 20.079V0H109.14V20.079H106.542Z" fill="#5F6AFF"/>
<path id="Vector_4" d="M92.1797 10.0937H101.949V12.4209H92.1797V10.0937ZM92.4503 20.0791H89.7443V1.1366H103.112V3.49087H92.4503V20.0791Z" fill="#5F6AFF"/>
<path id="Vector_5" d="M74.8717 25.4911C74.1861 25.4911 73.5186 25.3738 72.8692 25.1393C72.2197 24.9228 71.6605 24.5981 71.1914 24.1651L72.3009 22.2168C72.6617 22.5595 73.0586 22.8211 73.4916 23.0015C73.9245 23.1819 74.3846 23.2721 74.8717 23.2721C75.5031 23.2721 76.0262 23.1098 76.4412 22.785C76.8561 22.4603 77.244 21.883 77.6048 21.0532L78.4978 19.0777L78.7684 18.753L84.397 5.73682H86.9407L79.9861 21.5132C79.5712 22.5234 79.1021 23.3172 78.579 23.8945C78.0738 24.4718 77.5146 24.8777 76.9012 25.1123C76.2878 25.3648 75.6113 25.4911 74.8717 25.4911ZM78.2813 20.539L71.7326 5.73682H74.4387L80.0132 18.5095L78.2813 20.539Z" fill="#5F6AFF"/>
<path id="Vector_6" d="M63.8042 20.2414C62.6135 20.2414 61.5221 19.9708 60.5298 19.4296C59.5557 18.8703 58.7709 18.0495 58.1756 16.967C57.5983 15.8846 57.3096 14.5316 57.3096 12.9079C57.3096 11.2843 57.5892 9.93127 58.1485 8.84884C58.7258 7.76642 59.5015 6.9546 60.4757 6.41338C61.4679 5.87217 62.5774 5.60156 63.8042 5.60156C65.2113 5.60156 66.4561 5.90825 67.5386 6.52163C68.621 7.135 69.4779 7.99192 70.1093 9.09239C70.7407 10.1748 71.0564 11.4467 71.0564 12.9079C71.0564 14.3692 70.7407 15.6501 70.1093 16.7506C69.4779 17.851 68.621 18.7079 67.5386 19.3213C66.4561 19.9347 65.2113 20.2414 63.8042 20.2414ZM56.2001 25.3288V5.73687H58.6897V9.60654L58.5273 12.935L58.798 16.2635V25.3288H56.2001ZM63.5877 17.9683C64.5078 17.9683 65.3286 17.7608 66.0502 17.3459C66.7899 16.931 67.3672 16.3446 67.7821 15.5869C68.2151 14.8112 68.4316 13.9182 68.4316 12.9079C68.4316 11.8796 68.2151 10.9957 67.7821 10.256C67.3672 9.4983 66.7899 8.91198 66.0502 8.49705C65.3286 8.08212 64.5078 7.87466 63.5877 7.87466C62.6857 7.87466 61.8648 8.08212 61.1252 8.49705C60.4036 8.91198 59.8263 9.4983 59.3933 10.256C58.9784 10.9957 58.7709 11.8796 58.7709 12.9079C58.7709 13.9182 58.9784 14.8112 59.3933 15.5869C59.8263 16.3446 60.4036 16.931 61.1252 17.3459C61.8648 17.7608 62.6857 17.9683 63.5877 17.9683Z" fill="#5F6AFF"/>
<path id="Vector_7" d="M45.3585 20.2414C44.1678 20.2414 43.0764 19.9708 42.0842 19.4296C41.11 18.8703 40.3252 18.0495 39.7299 16.967C39.1526 15.8846 38.8639 14.5316 38.8639 12.9079C38.8639 11.2843 39.1436 9.93127 39.7028 8.84884C40.2801 7.76642 41.0559 6.9546 42.03 6.41338C43.0223 5.87217 44.1317 5.60156 45.3585 5.60156C46.7657 5.60156 48.0104 5.90825 49.0929 6.52163C50.1753 7.135 51.0322 7.99192 51.6636 9.09239C52.2951 10.1748 52.6108 11.4467 52.6108 12.9079C52.6108 14.3692 52.2951 15.6501 51.6636 16.7506C51.0322 17.851 50.1753 18.7079 49.0929 19.3213C48.0104 19.9347 46.7657 20.2414 45.3585 20.2414ZM37.7545 25.3288V5.73687H40.244V9.60654L40.0817 12.935L40.3523 16.2635V25.3288H37.7545ZM45.142 17.9683C46.0621 17.9683 46.8829 17.7608 47.6045 17.3459C48.3442 16.931 48.9215 16.3446 49.3364 15.5869C49.7694 14.8112 49.9859 13.9182 49.9859 12.9079C49.9859 11.8796 49.7694 10.9957 49.3364 10.256C48.9215 9.4983 48.3442 8.91198 47.6045 8.49705C46.8829 8.08212 46.0621 7.87466 45.142 7.87466C44.24 7.87466 43.4192 8.08212 42.6795 8.49705C41.9579 8.91198 41.3806 9.4983 40.9476 10.256C40.5327 10.9957 40.3252 11.8796 40.3252 12.9079C40.3252 13.9182 40.5327 14.8112 40.9476 15.5869C41.3806 16.3446 41.9579 16.931 42.6795 17.3459C43.4192 17.7608 44.24 17.9683 45.142 17.9683Z" fill="#5F6AFF"/>
<path id="Vector_8" d="M30.4844 20.079V17.0482L30.3491 16.48V11.3114C30.3491 10.2109 30.0243 9.363 29.3749 8.76766C28.7435 8.15429 27.7873 7.8476 26.5065 7.8476C25.6586 7.8476 24.8287 7.99192 24.0169 8.28057C23.205 8.55118 22.5195 8.921 21.9603 9.39006L20.8778 7.44169C21.6175 6.84635 22.5015 6.39534 23.5298 6.08866C24.5761 5.76393 25.6676 5.60156 26.8041 5.60156C28.7705 5.60156 30.2859 6.07963 31.3503 7.03578C32.4147 7.99192 32.9469 9.4532 32.9469 11.4196V20.079H30.4844ZM25.7758 20.2414C24.7114 20.2414 23.7733 20.061 22.9615 19.7002C22.1677 19.3394 21.5543 18.8432 21.1214 18.2118C20.6884 17.5624 20.4719 16.8317 20.4719 16.0199C20.4719 15.2442 20.6523 14.5406 21.0131 13.9092C21.392 13.2778 21.9963 12.7726 22.8262 12.3938C23.6741 12.0149 24.8107 11.8255 26.2358 11.8255H30.782V13.6927H26.3441C25.0452 13.6927 24.1702 13.9092 23.7192 14.3422C23.2682 14.7751 23.0427 15.2983 23.0427 15.9117C23.0427 16.6153 23.3223 17.1835 23.8816 17.6165C24.4408 18.0314 25.2166 18.2389 26.2088 18.2389C27.183 18.2389 28.0309 18.0224 28.7525 17.5894C29.4921 17.1565 30.0243 16.5251 30.3491 15.6952L30.8632 17.4812C30.5204 18.3291 29.9161 19.0056 29.0502 19.5107C28.1842 19.9978 27.0928 20.2414 25.7758 20.2414Z" fill="#5F6AFF"/>
<path id="Vector_9" d="M13.5845 1.1366H16.2905V20.0791H13.5845V1.1366ZM2.70607 20.0791H0V1.1366H2.70607V20.0791ZM13.828 11.6361H2.43546V9.28186H13.828V11.6361Z" fill="#5F6AFF"/>
</g>
</svg>
