<svg width="18" height="21" viewBox="0 0 18 21" fill="none" xmlns="http://www.w3.org/2000/svg">
<g id="login">
<path id="combo shape" fill-rule="evenodd" clip-rule="evenodd" d="M3.47458 0.715265C5.16252 -0.41003 7.37968 0.621618 7.70853 2.51637H11C12.5188 2.51637 13.75 3.74759 13.75 5.26637C13.75 5.68058 13.4142 6.01637 13 6.01637C12.5858 6.01637 12.25 5.68058 12.25 5.26637C12.25 4.57601 11.6904 4.01637 11 4.01637H7.75V16.5164H11C11.6904 16.5164 12.25 15.9567 12.25 15.2664C12.25 14.8522 12.5858 14.5164 13 14.5164C13.4142 14.5164 13.75 14.8522 13.75 15.2664C13.75 16.7852 12.5188 18.0164 11 18.0164H7.70853C7.37968 19.9111 5.16252 20.9428 3.47458 19.8175L1.47457 18.4841C0.709528 17.9741 0.25 17.1155 0.25 16.196V4.33674C0.25 3.41727 0.709528 2.55863 1.47457 2.0486L3.47458 0.715265ZM12.5302 7.73603C12.8231 8.02892 12.8231 8.50379 12.5302 8.79669L11.8105 9.51636L16.9998 9.51636C17.4141 9.51636 17.7499 9.85214 17.7499 10.2664C17.7499 10.6806 17.4141 11.0164 16.9998 11.0164L11.8105 11.0164L12.5302 11.736C12.8231 12.0289 12.8231 12.5038 12.5302 12.7967C12.2373 13.0896 11.7624 13.0896 11.4695 12.7967L10.1766 11.5038C9.49321 10.8204 9.49321 9.71234 10.1766 9.02892L11.4695 7.73603C11.7624 7.44313 12.2373 7.44313 12.5302 7.73603Z" fill="black"/>
</g>
</svg>
